<svg xmlns="http://www.w3.org/2000/svg" viewBox="0 0 78.73 3.36"><defs><style>.cls-1{opacity:0.5;}.cls-2{fill:#d8ff28;}</style></defs><g id="Layer_2" data-name="Layer 2"><g id="Header"><g class="cls-1"><path class="cls-2" d="M0,3.16,12.31,2.4c7.38-.47,17.23-1,27.08-1.56C44.31.55,49.23.22,53.85,0c2.42.05,4.64.26,6.75.48s4.11.47,5.94.72,3.51.51,5,.73,2.79.42,3.85.62c2.13.36,3.34.61,3.34.61l0,.2s-1.24,0-3.39-.11c-1.09,0-2.39-.1-3.89-.19l-5-.27-6-.38c-2.11-.11-4.34-.33-6.54-.33-4.62.16-9.55.24-14.48.36-9.85.25-19.71.53-27.1.66L0,3.36Z"/></g></g></g></svg>