<svg xmlns="http://www.w3.org/2000/svg" viewBox="0 0 15.29 28.76"><defs><style>.cls-1,.cls-2,.cls-3{fill:#fff;}.cls-1{opacity:0.3;}.cls-2{opacity:0.4;}.cls-3{opacity:0.5;}</style></defs><g id="Layer_2" data-name="Layer 2"><g id="Layer_7" data-name="Layer 7"><path class="cls-1" d="M2.71,0C13.42,1.54,18.24,20.11,13.42,25.21,3.85,35.33-4.34,19.59,2.56,15.3,9.15,11.21,2.71,0,2.71,0Z"/><path class="cls-2" d="M6.6,6.13c5.37,1.48,9.31,17.39,5,20.67-8.63,6.52-12.48-5.8-7-9C9.52,14.9,6.6,6.13,6.6,6.13Z"/><path class="cls-3" d="M8.77,13.09c5.88,4.87,4.68,13.12,1,14.83-7.27,3.41-7.55-4.54-3.09-6.05C10.81,20.49,8.77,13.09,8.77,13.09Z"/></g></g></svg>