<svg xmlns="http://www.w3.org/2000/svg" viewBox="0 0 53.05 53.05"><defs><style>.cls-1{fill:#fff;fill-rule:evenodd;opacity:0.3;}</style></defs><g id="Layer_2" data-name="Layer 2"><g id="Social"><path class="cls-1" d="M46.93,22.44H42.31A16.32,16.32,0,1,1,10.2,26.52a16.19,16.19,0,0,1,.54-4.08H6.12V44.89a2,2,0,0,0,2,2H44.89a2,2,0,0,0,2-2Zm0-14.28a2,2,0,0,0-2-2H38.77a2,2,0,0,0-2,2v6.12a2,2,0,0,0,2,2h6.12a2,2,0,0,0,2-2ZM26.52,16.32a10.21,10.21,0,1,0,10.21,10.2,10.2,10.2,0,0,0-10.21-10.2M46.93,53.05H6.12A6.12,6.12,0,0,1,0,46.93V6.12A6.12,6.12,0,0,1,6.12,0H46.93a6.12,6.12,0,0,1,6.12,6.12V46.93a6.12,6.12,0,0,1-6.12,6.12"/></g></g></svg>