<svg xmlns="http://www.w3.org/2000/svg" viewBox="0 0 53.05 53.05"><defs><style>.cls-1{opacity:0.3;}.cls-2{fill:#fff;}</style></defs><g id="Layer_2" data-name="Layer 2"><g id="Social"><g class="cls-1"><path class="cls-2" d="M26.52,0A26.53,26.53,0,1,0,53.05,26.52,26.53,26.53,0,0,0,26.52,0Zm0,50.11a23.36,23.36,0,0,1-7-1.06,26.15,26.15,0,0,0,2.93-6.18l1.47-5.6c.77,1.46,3,2.71,5.41,2.71,7.11,0,12.23-6.55,12.23-14.67,0-7.79-6.35-13.62-14.53-13.62-10.18,0-15.59,6.83-15.59,14.27,0,3.46,1.85,7.76,4.79,9.13.45.21.69.12.79-.31s.48-1.93.66-2.68a.73.73,0,0,0-.17-.67,9.21,9.21,0,0,1-1.75-5.38A10.21,10.21,0,0,1,26.39,15.81c5.8,0,9.86,4,9.86,9.6,0,6.38-3.23,10.79-7.42,10.79a3.42,3.42,0,0,1-3.49-4.26c.66-2.8,1.95-5.83,1.95-7.85,0-1.81-1-3.32-3-3.32-2.37,0-4.27,2.45-4.27,5.73a8.45,8.45,0,0,0,.71,3.5S18.41,39.88,18,41.72a22.59,22.59,0,0,0-.08,6.76,23.57,23.57,0,1,1,8.59,1.63Z"/></g></g></g></svg>