<svg xmlns="http://www.w3.org/2000/svg" viewBox="0 0 53.05 43.11"><defs><style>.cls-1{fill:#fff;opacity:0.3;}</style></defs><g id="Layer_2" data-name="Layer 2"><g id="Social"><path class="cls-1" d="M53.05,5.1A21.84,21.84,0,0,1,46.8,6.82a10.94,10.94,0,0,0,4.78-6,22,22,0,0,1-6.91,2.64,10.89,10.89,0,0,0-18.83,7.44,10.59,10.59,0,0,0,.29,2.48A30.88,30.88,0,0,1,3.69,2,10.9,10.9,0,0,0,7.06,16.52a10.72,10.72,0,0,1-4.93-1.36v.14A10.89,10.89,0,0,0,10.86,26,10.81,10.81,0,0,1,8,26.35a11.38,11.38,0,0,1-2-.19,10.89,10.89,0,0,0,10.16,7.56A21.85,21.85,0,0,1,2.6,38.37,22.28,22.28,0,0,1,0,38.22a30.8,30.8,0,0,0,16.68,4.89c20,0,31-16.58,31-31q0-.72,0-1.41A22.23,22.23,0,0,0,53.05,5.1Z"/></g></g></svg>