<svg xmlns="http://www.w3.org/2000/svg" viewBox="0 0 46.51 53.05"><defs><style>.cls-1{fill:#fff;opacity:0.3;}</style></defs><g id="Layer_2" data-name="Layer 2"><g id="Social"><path class="cls-1" d="M46.51,26.37a17.18,17.18,0,0,1-3.88.46c-6.69,0-11.85-4.68-11.85-12.81,0-4,1.54-6,3.72-6S38,9.83,38,13.6a22,22,0,0,1-1,5.88s2.06,3.6,7.7,2.5a23.37,23.37,0,0,0,1.85-9.12C46.51,4.73,42.36,0,34.77,0,27,0,22.39,6,22.39,13.92s3.66,14.57,9.71,17.64A50.44,50.44,0,0,1,23,44.49C16.83,37.1,11.3,27.23,9,8H0C4.17,40,16.6,50.26,19.89,52.22a4.68,4.68,0,0,0,5.16.1c2.67-1.51,10.68-9.52,15.12-18.91a29.77,29.77,0,0,0,6.34-.72Z"/></g></g></svg>