<svg xmlns="http://www.w3.org/2000/svg" viewBox="0 0 52 36.2"><defs><style>.cls-1{opacity:0.3;}.cls-2{fill:#fff;}</style></defs><g id="Layer_2" data-name="Layer 2"><g id="Social"><g class="cls-1"><path class="cls-2" d="M51.69,6.88s-.4-3.66-2-5.27c-2-2.12-4.24-1.3-5.28-1.43A158.87,158.87,0,0,0,25.89.47h0A160,160,0,0,0,7.27.18C6.24.31,4-.1,2,2,.35,3.63.19,7.08.19,7.08S0,11.18,0,15.48v4c0,4.29.19,8.59.19,8.59s.34,3.67,1.93,5.28c2,2.12,4.59,2,5.77,2.27,4.26.41,18,.54,18,.54s2.77,0,6.49-.08,8.36-.21,12.08-.48a7.55,7.55,0,0,0,5.32-2.25c1.59-1.61,1.89-5.28,1.89-5.28s.3-4.3.3-8.59v-4C52,11.18,51.69,6.88,51.69,6.88Zm-18.91,11L20,24.4V9.46L34.45,17Z"/></g></g></g></svg>